Coordinates
version=1
nRows=9
nColumns=63
inDegrees=yes

Units are S.I. units (second, meters, Newtons, ...)
If the header above contains a line with 'inDegrees', this indicates whether rotational values are in degrees (yes) or radians (no).

endheader
time	pelvis_tilt	pelvis_list	pelvis_rotation	pelvis_tx	pelvis_ty	pelvis_tz	hip_flexion_r	hip_adduction_r	hip_rotation_r	knee_angle_r	knee_angle_r_beta	ankle_angle_r	subtalar_angle_r	mtp_angle_r	hip_flexion_l	hip_adduction_l	hip_rotation_l	knee_angle_l	knee_angle_l_beta	ankle_angle_l	subtalar_angle_l	mtp_angle_l	L5_S1_Flex_Ext	L5_S1_Lat_Bending	L5_S1_axial_rotation	L4_L5_Flex_Ext	L4_L5_Lat_Bending	L4_L5_axial_rotation	L3_L4_Flex_Ext	L3_L4_Lat_Bending	L3_L4_axial_rotation	L2_L3_Flex_Ext	L2_L3_Lat_Bending	L2_L3_axial_rotation	L1_L2_Flex_Ext	L1_L2_Lat_Bending	L1_L2_axial_rotation	L1_T12_Flex_Ext	L1_T12_Lat_Bending	L1_T12_axial_rotation	Abs_r3	Abs_r2	Abs_r1	Abs_t1	Abs_t2	neck_flexion	neck_bending	neck_rotation	arm_flex_r	arm_add_r	arm_rot_r	elbow_flex_r	pro_sup_r	wrist_flex_r	wrist_dev_r	arm_flex_l	arm_add_l	arm_rot_l	elbow_flex_l	pro_sup_l	wrist_flex_l	wrist_dev_l
      3.75000000	    -39.49977732	     -4.53848859	     -2.74961534	     -0.13283615	      1.00578433	      0.02921601	    108.62868921	     -3.52305008	     -0.20330625	    118.44442978	      2.06724528	      2.49080997	    -14.86580426	      0.00000000	     81.28206185	     -8.02986053	      1.21887731	     50.02631599	      0.87312393	     -7.51173528	    -15.03189908	      0.00000000	     -0.05375426	      0.94899345	      0.21688890	     -0.09982704	      1.26216129	      0.23044446	     -0.08831287	      2.30738268	      0.23044446	     -0.06143574	      2.30738268	      0.18977779	     -0.04991621	      1.93518745	      0.17622223	     -0.03071518	      1.46999086	      0.16266668	     -0.38396130	     10.73520374	      1.20627100	      0.00000000	      0.00000000	      0.00000000	      0.00000000	      0.00000000	     68.66780974	    -14.24427106	     38.19966579	     43.19631988	     51.88436426	      0.00000000	      4.99999982	     59.84264606	    -15.31566942	     24.02795264	     44.26892225	     63.19732874	      0.00000000	      4.99999982
      3.75800000	    -39.57827370	     -4.94484574	     -3.01171167	     -0.13283540	      1.00615104	      0.02925072	    110.21110265	     -3.55361595	     -0.82063735	    118.86530085	      2.07459087	      3.45481148	    -14.94436016	      0.00000000	     79.92287973	     -8.52127964	      1.06855873	     49.15151617	      0.85785579	     -7.57733633	    -14.95915228	      0.00000000	     -0.05482535	      1.01023644	      0.25565618	     -0.10181616	      1.34361447	      0.27163469	     -0.09007257	      2.45628889	      0.27163469	     -0.06265989	      2.45628889	      0.22369916	     -0.05091082	      2.06007416	      0.20772064	     -0.03132721	      1.56485625	      0.19174213	     -0.39161201	     11.42799670	      1.42188296	      0.00000000	      0.00000000	      0.00000000	      0.00000000	      0.00000000	     68.91053701	    -14.22007094	     38.51031816	     43.02968172	     51.92843134	      0.00000000	      4.99999983	     59.75283824	    -15.20557451	     23.77356206	     44.14140960	     63.16120680	      0.00000000	      4.99999983
      3.76700000	    -39.67582888	     -5.27079122	     -3.28930716	     -0.13294990	      1.00671640	      0.02939361	    111.67650634	     -3.50708074	     -1.36836979	    118.95232808	      2.07610978	      4.54349944	    -14.98881567	      0.00000000	     78.71167358	     -8.99218502	      0.88812233	     48.56062623	      0.84754281	     -7.54878051	    -15.02761594	      0.00000000	     -0.05689719	      1.05848650	      0.29742087	     -0.10566378	      1.40778705	      0.31600967	     -0.09347640	      2.57360409	      0.31600967	     -0.06502780	      2.57360409	      0.26024326	     -0.05283473	      2.15846568	      0.24165445	     -0.03251106	      1.63959559	      0.22306565	     -0.40641096	     11.97381103	      1.65416563	      0.00000000	      0.00000000	      0.00000000	      0.00000000	      0.00000000	     69.21543059	    -14.20976151	     38.95727505	     42.80223393	     51.99007666	      0.00000000	      4.99999983	     59.63945705	    -15.07391087	     23.40014736	     44.03113919	     63.10427558	      0.00000000	      4.99999983
      3.77500000	    -39.81324624	     -5.54567175	     -3.61577139	     -0.13319163	      1.00723562	      0.02945186	    113.03254271	     -3.42540556	     -1.79173789	    118.78814326	      2.07324421	      6.06392354	    -14.47156597	      0.00000000	     77.78676956	     -9.48580371	      0.68668150	     48.44580510	      0.84553881	     -7.49968723	    -15.27371555	      0.00000000	     -0.05455248	      1.10414817	      0.34980986	     -0.10130941	      1.46851707	      0.37167297	     -0.08962427	      2.68462587	      0.37167297	     -0.06234803	      2.68462587	      0.30608362	     -0.05065743	      2.25157896	      0.28422051	     -0.03117129	      1.71032552	      0.26235739	     -0.38966290	     12.49034497	      1.94553748	      0.00000000	      0.00000000	      0.00000000	      0.00000000	      0.00000000	     69.68394476	    -14.27517438	     40.03428763	     42.48690499	     52.04542168	      0.00000000	      4.99999985	     59.43578433	    -14.87268329	     22.54693962	     44.00231538	     62.69515815	      0.00000000	      4.99999985
      3.78300000	    -39.96069484	     -5.80359190	     -3.84333722	     -0.13362891	      1.00784617	      0.02939749	    114.29489171	     -3.39624739	     -2.17233559	    118.31319094	      2.06495473	      6.90268831	    -14.20068624	      0.00000000	     77.12939703	     -9.76619442	      0.89963768	     48.73136320	      0.85052274	     -7.90031828	    -15.96647983	      0.00000000	     -0.05563877	      1.14603491	      0.38758637	     -0.10332676	      1.52422644	      0.41181052	     -0.09140894	      2.78646929	      0.41181052	     -0.06358955	      2.78646929	      0.33913808	     -0.05166616	      2.33699440	      0.31491393	     -0.03179199	      1.77520808	      0.29068978	     -0.39742217	     12.96417616	      2.15563913	      0.00000000	      0.00000000	      0.00000000	      0.00000000	      0.00000000	     70.13078095	    -14.35634256	     40.94564224	     42.31189852	     52.24356153	      0.00000000	      4.99999987	     59.25455122	    -14.70890259	     21.72990624	     44.08393490	     62.71766973	      0.00000000	      4.99999987
      3.79200000	    -40.12653539	     -5.85318279	     -3.85347726	     -0.13432738	      1.00849955	      0.02937384	    115.49854561	     -3.43507814	     -2.26137918	    117.55438266	      2.05171103	      7.29971990	    -14.10623130	      0.00000000	     76.62193938	     -9.84188849	      0.97414920	     49.21285012	      0.85892627	     -7.85102510	    -15.91575299	      0.00000000	     -0.05469054	      1.15521237	      0.39603284	     -0.10156580	      1.53643246	      0.42078490	     -0.08985108	      2.80878337	      0.42078490	     -0.06250581	      2.80878337	      0.34652874	     -0.05078563	      2.35570907	      0.32177668	     -0.03125017	      1.78942397	      0.29702463	     -0.39064903	     13.06799341	      2.20261586	      0.00000000	      0.00000000	      0.00000000	      0.00000000	      0.00000000	     70.29345673	    -14.33057935	     40.94206232	     42.28032070	     52.23792145	      0.00000000	      4.99999987	     59.33098539	    -14.73087446	     21.66651340	     44.09503103	     62.68607763	      0.00000000	      4.99999987
      3.80000000	    -40.28006059	     -5.96953195	     -4.36716025	     -0.13491979	      1.00908896	      0.02991382	    116.32923707	     -2.99325485	     -2.67362198	    116.38245609	      2.03125705	      8.22163372	    -14.10669694	      0.00000000	     76.48977870	    -10.37468310	      1.24378427	     50.53453954	      0.88199410	     -7.94556427	    -16.47816466	      0.00000000	     -0.05660364	      1.17816529	      0.49851915	     -0.10511863	      1.56695984	      0.52967660	     -0.09299413	      2.86459109	      0.52967660	     -0.06469230	      2.86459109	      0.43620426	     -0.05256214	      2.40251466	      0.40504681	     -0.03234332	      1.82497804	      0.37388936	     -0.40431417	     13.32764141	      2.77261396	      0.00000000	      0.00000000	      0.00000000	      0.00000000	      0.00000000	     70.56422144	    -14.30077947	     41.13675411	     42.05627392	     52.27620763	      0.00000000	      4.99999988	     59.25692771	    -14.68774964	     21.42464296	     44.18620124	     62.65904291	      0.00000000	      4.99999988
      3.80800000	    -40.41808745	     -5.97538952	     -4.45311048	     -0.13569167	      1.00959635	      0.02992470	    117.05366461	     -2.87299308	     -2.76036073	    115.03696414	      2.00777379	      8.64109321	    -13.93845711	      0.00000000	     76.55241744	    -10.47451069	      1.50517903	     52.07120553	      0.90881398	     -8.00915448	    -16.72066931	      0.00000000	     -0.05639821	      1.18556899	      0.52164327	     -0.10473712	      1.57680675	      0.55424598	     -0.09265662	      2.88259244	      0.55424598	     -0.06445751	      2.88259244	      0.45643786	     -0.05237138	      2.41761228	      0.42383516	     -0.03222594	      1.83644636	      0.39123245	     -0.40284677	     13.41139350	      2.90122339	      0.00000000	      0.00000000	      0.00000000	      0.00000000	      0.00000000	     70.74339805	    -14.30336233	     41.27734863	     42.05301238	     52.29409420	      0.00000000	      4.99999988	     59.28041504	    -14.67309820	     21.21667858	     44.20756551	     62.61763287	      0.00000000	      4.99999988
      3.81700000	    -40.61015354	     -6.39092530	     -4.87913377	     -0.13656608	      1.01028053	      0.03001794	    117.36087009	     -2.60274731	     -3.41488048	    113.21212188	      1.97592428	      9.25143883	    -13.69810988	      0.00000000	     77.02693561	    -10.99987105	      2.18968387	     54.07122082	      0.94372083	     -8.74476573	    -17.40330640	      0.00000000	     -0.05827859	      1.25057019	      0.61365023	     -0.10822918	      1.66325836	      0.65200337	     -0.09574590	      3.04063637	      0.65200337	     -0.06660660	      3.04063637	      0.53694395	     -0.05411750	      2.55016274	      0.49859081	     -0.03330039	      1.93713323	      0.46023767	     -0.41627817	     14.14670015	      3.41293848	      0.00000000	      0.00000000	      0.00000000	      0.00000000	      0.00000000	     71.16638177	    -14.51513915	     41.88820750	     42.02399877	     52.40261104	      0.00000000	      4.99999989	     59.13725362	    -14.38036865	     20.56101040	     44.25940662	     62.56621207	      0.00000000	      4.99999989
